<?xml version="1.0" encoding="UTF-8" standalone="no"?>
<!-- Created with Inkscape (http://www.inkscape.org/) -->

<svg
   xmlns:dc="http://purl.org/dc/elements/1.1/"
   xmlns:cc="http://creativecommons.org/ns#"
   xmlns:rdf="http://www.w3.org/1999/02/22-rdf-syntax-ns#"
   xmlns:svg="http://www.w3.org/2000/svg"
   xmlns="http://www.w3.org/2000/svg"
   xmlns:xlink="http://www.w3.org/1999/xlink"
   xmlns:sodipodi="http://sodipodi.sourceforge.net/DTD/sodipodi-0.dtd"
   xmlns:inkscape="http://www.inkscape.org/namespaces/inkscape"
   id="svg2"
   version="1.1"
   inkscape:version="0.91 r13725"
   width="201.9449"
   height="201.9449"
   viewBox="0 0 201.9449 201.9449"
   sodipodi:docname="Logo.svg"
   inkscape:export-filename="/home/raitaro/Desktop/Logo.png"
   inkscape:export-xdpi="1711.3579"
   inkscape:export-ydpi="1711.3579">
  <metadata
     id="metadata8">
    <rdf:RDF>
      <cc:Work
         rdf:about="">
        <dc:format>image/svg+xml</dc:format>
        <dc:type
           rdf:resource="http://purl.org/dc/dcmitype/StillImage" />
        <dc:title />
      </cc:Work>
    </rdf:RDF>
  </metadata>
  <defs
     id="defs6">
    <linearGradient
       id="linearGradient4250"
       inkscape:collect="always">
      <stop
         id="stop4252"
         offset="0"
         style="stop-color:#008fff;stop-opacity:0.98974359" />
      <stop
         id="stop4254"
         offset="1"
         style="stop-color:#005fff;stop-opacity:0.99249274" />
    </linearGradient>
    <linearGradient
       inkscape:collect="always"
       id="linearGradient4240">
      <stop
         style="stop-color:#008fff;stop-opacity:0.98974359"
         offset="0"
         id="stop4242" />
      <stop
         style="stop-color:#005fff;stop-opacity:0.99249274"
         offset="1"
         id="stop4244" />
    </linearGradient>
    <linearGradient
       inkscape:collect="always"
       xlink:href="#linearGradient4240"
       id="linearGradient4246"
       x1="-181.57063"
       y1="34.009682"
       x2="-113.25694"
       y2="106.8177"
       gradientUnits="userSpaceOnUse" />
    <linearGradient
       inkscape:collect="always"
       xlink:href="#linearGradient4250"
       id="linearGradient4248"
       x1="-181.57063"
       y1="34.009682"
       x2="-113.25694"
       y2="106.8177"
       gradientUnits="userSpaceOnUse" />
  </defs>
  <sodipodi:namedview
     pagecolor="#ffffff"
     bordercolor="#666666"
     borderopacity="1"
     objecttolerance="10"
     gridtolerance="10"
     guidetolerance="10"
     inkscape:pageopacity="0"
     inkscape:pageshadow="2"
     inkscape:window-width="1920"
     inkscape:window-height="1080"
     id="namedview4"
     showgrid="false"
     inkscape:snap-object-midpoints="true"
     fit-margin-top="0"
     fit-margin-left="0"
     fit-margin-right="0"
     fit-margin-bottom="0"
     inkscape:zoom="2.36"
     inkscape:cx="-31.751037"
     inkscape:cy="106.33481"
     inkscape:window-x="0"
     inkscape:window-y="0"
     inkscape:window-maximized="1"
     inkscape:current-layer="svg2" />
  <g
     id="g4261"
     transform="translate(214.31983,0.05016327)">
    <path
       id="path4138"
       d="M -12.374931,100.92229 A 100.97245,100.97245 0 0 1 -113.34738,201.89474 100.97245,100.97245 0 0 1 -214.31983,100.92229 100.97245,100.97245 0 0 1 -113.34738,-0.05016327 100.97245,100.97245 0 0 1 -12.374931,100.92229 Z"
       style="opacity:1;fill:url(#linearGradient4248);fill-opacity:1;stroke:none;stroke-width:0.80000001;stroke-linecap:square;stroke-linejoin:miter;stroke-miterlimit:4;stroke-dasharray:none"
       inkscape:connector-curvature="0" />
    <path
       id="circle4140"
       d="m -27.955254,100.92229 a 85.392128,85.392128 0 0 1 -85.392126,85.39212 85.392128,85.392128 0 0 1 -85.39213,-85.39212 85.392128,85.392128 0 0 1 85.39213,-85.392131 85.392128,85.392128 0 0 1 85.392126,85.392131 z"
       style="opacity:1;fill:#ffffff;fill-opacity:1;stroke:none;stroke-width:0.80000001;stroke-linecap:square;stroke-linejoin:miter;stroke-miterlimit:4;stroke-dasharray:none"
       inkscape:connector-curvature="0" />
    <path
       id="circle4148"
       d="m -50.405575,100.92229 a 62.941807,62.941807 0 0 1 -62.941805,62.9418 62.941807,62.941807 0 0 1 -62.94181,-62.9418 62.941807,62.941807 0 0 1 62.94181,-62.94181 62.941807,62.941807 0 0 1 62.941805,62.94181 z"
       style="opacity:1;fill:url(#linearGradient4246);fill-opacity:1;stroke:none;stroke-width:0.80000001;stroke-linecap:square;stroke-linejoin:miter;stroke-miterlimit:4;stroke-dasharray:none"
       inkscape:connector-curvature="0" />
    <path
       inkscape:connector-curvature="0"
       id="circle4166"
       d="m -75.831846,77.424711 c -0.0472,0.0846 -0.0801,0.16286 -0.12891,0.24805 -6.21714,10.86128 -17.82812,17.97851 -17.82812,17.97851 0,0 -0.0136,0.004 -0.0137,0.004 a 20.524069,20.524069 0 0 1 0.76367,5.537109 20.524069,20.524069 0 0 1 -20.523454,20.52344 20.524069,20.524069 0 0 1 -20.52343,-20.52344 20.524069,20.524069 0 0 1 0.39843,-3.999999 c -0.0328,-0.0152 -0.069,-0.0276 -0.10156,-0.043 -12.05977,-5.69281 -19.09961,-16.33008 -19.09961,-16.33008 l -0.16406,-0.39844 a 44.6436,44.6436 0 0 0 -5.1543,20.771489 44.6436,44.6436 0 0 0 44.64453,44.64453 44.6436,44.6436 0 0 0 44.644544,-44.64453 44.6436,44.6436 0 0 0 -6.91406,-23.767579 z"
       style="opacity:1;fill:#ffffff;fill-opacity:1;stroke:none;stroke-width:0.80000001;stroke-linecap:square;stroke-linejoin:miter;stroke-miterlimit:4;stroke-dasharray:none" />
  </g>
</svg>
